<?xml version="1.0" encoding="UTF-8" standalone="no"?>
<!-- Created with Inkscape (http://www.inkscape.org/) -->

<svg
   width="126.01586mm"
   height="63.899277mm"
   viewBox="0 0 126.01586 63.899277"
   version="1.1"
   id="svg5"
   inkscape:version="1.2.2 (b0a8486541, 2022-12-01)"
   sodipodi:docname="LAPTOP.svg"
   xmlns:inkscape="http://www.inkscape.org/namespaces/inkscape"
   xmlns:sodipodi="http://sodipodi.sourceforge.net/DTD/sodipodi-0.dtd"
   xmlns="http://www.w3.org/2000/svg"
   xmlns:svg="http://www.w3.org/2000/svg">
  <sodipodi:namedview
     id="namedview7"
     pagecolor="#ffffff"
     bordercolor="#000000"
     borderopacity="0.25"
     inkscape:showpageshadow="2"
     inkscape:pageopacity="0.0"
     inkscape:pagecheckerboard="0"
     inkscape:deskcolor="#d1d1d1"
     inkscape:document-units="mm"
     showgrid="false"
     showguides="true"
     inkscape:zoom="0.82646577"
     inkscape:cx="71.993302"
     inkscape:cy="146.40655"
     inkscape:window-width="1536"
     inkscape:window-height="828"
     inkscape:window-x="0"
     inkscape:window-y="0"
     inkscape:window-maximized="1"
     inkscape:current-layer="layer1" />
  <defs
     id="defs2">
    <rect
       x="397.50266"
       y="451.31281"
       width="47.602512"
       height="47.77103"
       id="rect2847" />
  </defs>
  <g
     inkscape:label="Layer 1"
     inkscape:groupmode="layer"
     id="layer1"
     transform="translate(-45.282326,-110.89601)">
    <path
       id="rect1107"
       style="fill:#ffffff;stroke:#5c5c5c"
       d="m 169.12583,156.70166 v 0 0 l 1.60004,-1.67369 V 111.39601 H 79.98211 l -1.984287,1.38741"
       sodipodi:nodetypes="ccccccc" />
    <path
       id="rect234"
       style="fill:#ffffff;stroke:#5c5c5c;stroke-width:1.6;stroke-dasharray:none"
       d="m 78.311684,157.30257 90.797086,-0.98188 -31.69439,15.13046 H 45.599911 Z m -9.803013,4.17032 88.363899,0.7196 m -99.923847,4.34997 90.978957,-0.01 m 12.05368,-10.02205 -31.99861,15.19872 m 19.6641,-15.24903 -32.22303,15.09596 m 19.79871,-14.94281 -32.02227,14.90262 m 21.5538,-15.06991 -25.429649,10.17186 m 7.588399,-9.93972 -32.487349,14.93202 m 21.822272,-14.57924 -32.972031,14.55079"
       sodipodi:nodetypes="ccccccccccccccccccccc" />
    <path
       id="rect443"
       style="fill:#ffffff;stroke:#5c5c5c"
       d="m 78.235466,112.82906 h 90.743764 v 43.63197 H 78.235466 Z"
       sodipodi:nodetypes="ccccc" />
    <path
       style="fill:#ffffff;stroke:#5c5c5c;stroke-width:1.6;stroke-dasharray:none"
       d="m 170.75628,111.63416 -1.86913,1.37227"
       id="path1237"
       sodipodi:nodetypes="cc" />
    <path
       id="path1239"
       style="fill:none;stroke:#5c5c5c;stroke-width:1.6;stroke-dasharray:none"
       d="m 170.05906,155.45903 0.35465,2.1666 -32.59781,16.36848 -91.613717,-0.56881 -0.0871,-2.61471"
       sodipodi:nodetypes="ccccc" />
    <path
       style="fill:#808080;stroke:#5c5c5c;stroke-width:5.1739;stroke-dasharray:none"
       d="m 298.16929,508.64173 v -79.99664 h 168.97686 168.97686 v 79.99664 79.99664 H 467.14615 298.16929 Z"
       id="path1437"
       transform="scale(0.26458333)" />
    <path
       style="fill:#ffffff;fill-opacity:1;stroke:#dcdcdc;stroke-width:1.6;stroke-dasharray:none;stroke-opacity:1"
       d="M 82.419721,126.73968 C 99.952803,118.1739 99.952803,118.1739 99.952803,118.1739"
       id="path1493" />
    <path
       style="fill:#ffffff;fill-opacity:1;stroke:#dcdcdc;stroke-width:1.06482;stroke-dasharray:none;stroke-opacity:1"
       d="m 82.034574,122.42954 c 11.668479,-5.70063 11.668479,-5.70063 11.668479,-5.70063"
       id="path2791" />
    <g
       aria-label="LAP
TOP"
       transform="matrix(1.0583333,0,0,1.0583333,-302.37887,-359.23593)"
       id="text2845"
       style="font-size:23.3333px;line-height:15.874px;white-space:pre;shape-inside:url(#rect2847);fill:#ffffff;stroke:#dcdcdc;stroke-width:6.04724">
      <path
         d="m 402.81822,465.2993 h 9.77538 c 0.46712,0 0.85449,-0.38737 0.85449,-0.8545 0,-0.46712 -0.38737,-0.85449 -0.85449,-0.85449 h -8.92089 l -0.0342,-13.14776 v -0.0114 c 0,-0.46712 -0.38736,-0.85449 -0.85449,-0.85449 -0.46712,0 -0.85449,0.38737 -0.85449,0.85449 v 0.0114 l 0.0342,14.00225 c 0,0.46713 0.38737,0.8545 0.85449,0.8545 z"
         style="font-family:Manjari;-inkscape-font-specification:Manjari;text-align:center;text-anchor:middle;stroke:none"
         id="path3233" />
      <path
         d="m 415.38494,465.57273 c 0.41015,0 0.69498,-0.1709 0.84309,-0.52408 l 2.33561,-5.25228 h 6.33463 l 2.29004,5.22949 c 0.14811,0.35319 0.44433,0.52409 0.88867,0.52409 0.43294,0 0.75195,-0.44434 0.75195,-0.87728 0,-0.11393 -0.0228,-0.22787 -0.0684,-0.3304 l -6.26627,-14.2757 c -0.14811,-0.3418 -0.43294,-0.51269 -0.8317,-0.51269 -0.29623,0 -0.63802,0.28483 -0.74056,0.51269 l -6.25488,14.29848 c -0.057,0.11393 -0.0798,0.25065 -0.0798,0.43294 0,0.36459 0.42155,0.77474 0.79753,0.77474 z m 6.32323,-13.02244 2.43815,5.5371 h -4.84212 z"
         style="font-family:Manjari;-inkscape-font-specification:Manjari;text-align:center;text-anchor:middle;stroke:none"
         id="path3235" />
      <path
         d="m 431.64305,465.48159 c 0.46712,0 0.85449,-0.38737 0.85449,-0.85449 v -0.0114 l -0.0114,-4.94465 2.22168,-0.0456 c 3.66861,-0.10254 6.1979,-1.5153 6.1979,-5.28645 0,-3.24707 -2.46093,-4.80794 -5.708,-4.80794 l -3.58886,0.0228 c -0.52409,0.0114 -0.8431,0.55826 -0.8431,0.85449 l 0.0228,14.20733 v 0.0114 c 0,0.46712 0.38737,0.85449 0.85449,0.85449 z m 7.5537,-11.13117 c 0,2.72298 -1.80013,3.50911 -4.5231,3.56607 l -2.1875,0.0456 -0.0114,-6.71061 h 2.64322 c 2.42676,0 4.07877,0.86589 4.07877,3.09896 z"
         style="font-family:Manjari;-inkscape-font-specification:Manjari;text-align:center;text-anchor:middle;stroke:none"
         id="path3237" />
      <path
         d="m 399.69079,468.46606 c 0,0.46712 0.38737,0.82031 0.85449,0.82031 h 4.84211 v 13.40981 c 0,0.46712 0.36459,0.85449 0.83171,0.85449 0.46712,0 0.87727,-0.38737 0.87727,-0.85449 v -13.40981 h 4.85351 c 0.47852,0 0.86589,-0.41016 0.86589,-0.88867 0,-0.46713 -0.38737,-0.82032 -0.85449,-0.82032 h -11.40461 c -0.47851,0 -0.86588,0.41016 -0.86588,0.88868 z"
         style="font-family:Manjari;-inkscape-font-specification:Manjari;text-align:center;text-anchor:middle;stroke:none"
         id="path3239" />
      <path
         d="m 422.10124,467.56599 c -4.40918,0 -7.58788,3.62304 -7.58788,8.0664 0,4.58007 2.97362,7.97524 7.58788,7.97524 4.5231,0 7.59927,-3.44075 7.59927,-7.97524 0,-4.52311 -3.12174,-8.0664 -7.59927,-8.0664 z m 0,1.74316 c 3.36099,0 5.92447,2.56348 5.92447,6.32324 0,3.16731 -2.63184,6.24348 -5.92447,6.24348 -3.30404,0 -5.8789,-2.90527 -5.8789,-6.24348 0,-3.61165 2.32421,-6.32324 5.8789,-6.32324 z"
         style="font-family:Manjari;-inkscape-font-specification:Manjari;text-align:center;text-anchor:middle;stroke:none"
         id="path3241" />
      <path
         d="m 433.08429,483.52788 c 0.46712,0 0.85449,-0.38737 0.85449,-0.85449 v -0.0114 l -0.0114,-4.94466 2.22168,-0.0456 c 3.66861,-0.10254 6.1979,-1.5153 6.1979,-5.28645 0,-3.24707 -2.46093,-4.80794 -5.70799,-4.80794 l -3.58887,0.0228 c -0.52408,0.0114 -0.84309,0.55827 -0.84309,0.85449 l 0.0228,14.20734 v 0.0114 c 0,0.46712 0.38737,0.85449 0.85449,0.85449 z m 7.5537,-11.13117 c 0,2.72298 -1.80012,3.50911 -4.5231,3.56608 l -2.1875,0.0456 -0.0114,-6.7106 h 2.64322 c 2.42676,0 4.07877,0.86588 4.07877,3.09895 z"
         style="font-family:Manjari;-inkscape-font-specification:Manjari;text-align:center;text-anchor:middle;stroke:none"
         id="path3243" />
    </g>
    <path
       style="fill:#b3b3b3;fill-opacity:1;stroke:none;stroke-width:7.31699;stroke-dasharray:none;stroke-opacity:1"
       d="m 299.56877,644.43044 c 0.27728,-0.26639 6.08856,-2.98883 12.91395,-6.04986 l 12.4098,-5.5655 44.45886,0.0757 44.45886,0.0758 -12.57411,5.97411 -12.57411,5.97411 h -44.7987 c -24.63929,0 -44.57184,-0.21796 -44.29455,-0.48435 z"
       id="path3091"
       transform="scale(0.26458333)" />
    <path
       style="fill:#b3b3b3;fill-opacity:1;stroke:none;stroke-width:7.31699;stroke-dasharray:none;stroke-opacity:1"
       d="m 258.40902,644.44335 c 0.3768,-0.3834 6.30879,-3.15661 13.1822,-6.16268 11.87963,-5.19554 13.04145,-5.46268 23.51433,-5.40665 l 11.01723,0.0589 -11.49473,5.60962 c -11.04239,5.38887 -11.99468,5.62906 -24.19943,6.10374 -6.98758,0.27177 -12.3964,0.18043 -12.0196,-0.20298 z"
       id="path3093"
       transform="scale(0.26458333)" />
    <path
       style="fill:#b3b3b3;fill-opacity:1;stroke:none;stroke-width:7.31699;stroke-dasharray:none;stroke-opacity:1"
       d="m 190.71034,644.37163 c 0.29874,-0.29874 6.37127,-3.03271 13.49451,-6.07549 l 12.95134,-5.53233 23.72228,0.32812 23.72228,0.32813 -13.32705,5.74737 -13.32705,5.74736 h -23.88974 c -13.13935,0 -23.64531,-0.24442 -23.34657,-0.54316 z"
       id="path3095"
       transform="scale(0.26458333)" />
    <path
       style="fill:#b3b3b3;fill-opacity:1;stroke:none;stroke-width:7.31699;stroke-dasharray:none;stroke-opacity:1"
       d="m 235.47929,625.01209 c 0.29874,-0.29874 6.44065,-3.06235 13.64869,-6.14136 l 13.10553,-5.59819 21.73402,0.99898 21.73403,0.99897 -11.88911,5.15176 -11.8891,5.15177 -23.49361,-0.009 c -12.92149,-0.005 -23.24919,-0.2538 -22.95045,-0.55254 z"
       id="path3097"
       transform="scale(0.26458333)" />
    <path
       style="fill:#b3b3b3;fill-opacity:1;stroke:none;stroke-width:7.31699;stroke-dasharray:none;stroke-opacity:1"
       d="m 286.76324,602.56579 10.88974,-4.7517 23.59444,-0.0155 23.59445,-0.0155 -10.72892,4.81127 -10.72891,4.81127 -23.75527,-0.0441 -23.75528,-0.0441 z"
       id="path3099"
       transform="scale(0.26458333)" />
    <path
       style="fill:#b3b3b3;fill-opacity:1;stroke:none;stroke-width:7.31699;stroke-dasharray:none;stroke-opacity:1"
       d="m 301.98871,625.05368 c 0.27729,-0.27587 5.63456,-2.72606 11.90505,-5.44487 10.43629,-4.52507 12.27899,-4.94158 21.77948,-4.92291 l 10.3786,0.0204 -11.49473,5.37555 c -10.85307,5.07547 -12.09699,5.37827 -22.28364,5.42447 -5.9339,0.0269 -10.56204,-0.17678 -10.28476,-0.45264 z"
       id="path3101"
       transform="scale(0.26458333)" />
    <path
       style="fill:#b3b3b3;fill-opacity:1;stroke:none;stroke-width:7.31699;stroke-dasharray:none;stroke-opacity:1"
       d="m 343.1579,606.87136 c 0.29388,-0.29387 5.06101,-2.47182 10.59364,-4.83989 8.73467,-3.73859 11.28006,-4.29344 19.32939,-4.21351 l 9.27005,0.0921 -10.11266,4.74783 c -9.14703,4.29447 -11.04377,4.74784 -19.8637,4.74784 -5.36307,0 -9.51059,-0.24045 -9.21672,-0.53432 z"
       id="path3103"
       transform="scale(0.26458333)" />
    <path
       style="fill:#b3b3b3;fill-opacity:1;stroke:none;stroke-width:7.31699;stroke-dasharray:none;stroke-opacity:1"
       d="m 391.81629,601.93617 11.88524,-5.42024 21.99396,0.0534 21.99395,0.0533 -13.25623,5.39152 -13.25623,5.39153 -20.62297,-0.0246 -20.62297,-0.0246 z"
       id="path3105"
       transform="scale(0.26458333)" />
    <path
       style="fill:#b3b3b3;fill-opacity:1;stroke:none;stroke-width:7.31699;stroke-dasharray:none;stroke-opacity:1"
       d="m 352.62556,619.9969 11.41361,-5.3906 18.79873,0.3321 18.79873,0.33209 -13.03075,5.14238 -13.03075,5.14238 -17.18159,-0.0839 -17.18159,-0.0839 z"
       id="path3107"
       transform="scale(0.26458333)" />
    <path
       style="fill:#b3b3b3;fill-opacity:1;stroke:none;stroke-width:7.31699;stroke-dasharray:none;stroke-opacity:1"
       d="m 397.57646,625.05742 c 0.27728,-0.2738 5.94902,-2.66518 12.60387,-5.31416 l 12.09971,-4.81634 13.91467,0.66801 13.91468,0.66802 -10.11267,4.64615 -10.11266,4.64615 h -16.40588 c -9.02323,0 -16.17901,-0.22402 -15.90172,-0.49783 z"
       id="path3109"
       transform="scale(0.26458333)" />
    <path
       style="fill:#b3b3b3;fill-opacity:1;stroke:none;stroke-width:7.31699;stroke-dasharray:none;stroke-opacity:1"
       d="m 439.92546,608.12813 c 0.27728,-0.26813 6.74212,-2.99057 14.3663,-6.04986 13.23005,-5.3087 14.38869,-5.55749 25.4094,-5.45597 l 11.54726,0.10637 -12.09972,5.89052 -12.09971,5.89052 -13.81385,0.053 c -7.59761,0.0291 -13.58697,-0.16642 -13.30968,-0.43455 z"
       id="path3111"
       transform="scale(0.26458333)" />
    <path
       style="fill:#b3b3b3;fill-opacity:1;stroke:none;stroke-width:7.31699;stroke-dasharray:none;stroke-opacity:1"
       d="m 458.52312,620.62706 c 9.57738,-4.72871 9.69095,-4.75109 23.59444,-4.64864 l 13.97074,0.10294 -9.67977,4.70071 c -9.56063,4.64285 -9.85104,4.70007 -23.59444,4.64864 l -13.91468,-0.0521 z"
       id="path3113"
       transform="scale(0.26458333)" />
    <path
       style="fill:#b3b3b3;fill-opacity:1;stroke:none;stroke-width:7.31699;stroke-dasharray:none;stroke-opacity:1"
       d="m 498.50824,601.94868 13.30969,-6.46451 13.91467,0.0167 13.91467,0.0167 -13.30968,6.50397 -13.30969,6.50398 -13.91467,-0.0562 -13.91467,-0.0562 13.30968,-6.4645 z"
       id="path3115"
       transform="scale(0.26458333)" />
    <path
       style="fill:#b3b3b3;fill-opacity:1;stroke:none;stroke-width:7.31699;stroke-dasharray:none;stroke-opacity:1"
       d="m 418.04514,639.19882 11.49473,-5.66656 15.12464,-0.31134 15.12465,-0.31134 -12.09972,5.92435 -12.09971,5.92434 -14.51966,0.0536 -14.51966,0.0535 z"
       id="path3117"
       transform="scale(0.26458333)" />
    <path
       style="fill:#b3b3b3;fill-opacity:1;stroke:none;stroke-width:7.31699;stroke-dasharray:none;stroke-opacity:1"
       d="m 465.83901,638.81153 12.09972,-5.89052 15.12464,0.0468 15.12465,0.0468 -12.09972,5.93053 -12.09971,5.93054 -15.12465,-0.0868 -15.12464,-0.0868 z"
       id="path3119"
       transform="scale(0.26458333)" />
    <path
       style="fill:#b3b3b3;fill-opacity:1;stroke:none;stroke-width:7.31699;stroke-dasharray:none;stroke-opacity:1"
       d="m 504.5581,620.64866 9.67977,-4.70071 15.12465,0.0322 15.12464,0.0322 -10.15331,4.77141 c -10.13561,4.7631 -10.17884,4.77124 -24.80441,4.66847 l -14.65111,-0.10294 z"
       id="path3121"
       transform="scale(0.26458333)" />
    <path
       style="fill:#b3b3b3;fill-opacity:1;stroke:none;stroke-width:7.31699;stroke-dasharray:none;stroke-opacity:1"
       d="m 544.48716,601.9244 13.30969,-6.47763 14.51965,0.0277 14.51966,0.0277 -13.30969,6.54374 -13.30968,6.54373 -14.51966,-0.0938 -14.51966,-0.0939 13.30969,-6.47763 z"
       id="path3123"
       transform="scale(0.26458333)" />
    <path
       style="fill:#b3b3b3;fill-opacity:1;stroke:none;stroke-width:7.31699;stroke-dasharray:none;stroke-opacity:1"
       d="m 590.56594,602.55137 c 12.47626,-6.02408 15.93528,-7.16537 23.59445,-7.78489 l 8.97491,-0.72595 -16.21139,7.89254 c -14.77797,7.19469 -16.86421,7.88303 -23.59444,7.7849 l -7.38305,-0.10765 z"
       id="path3125"
       transform="scale(0.26458333)" />
    <path
       style="fill:#b3b3b3;fill-opacity:1;stroke:none;stroke-width:7.31699;stroke-dasharray:none;stroke-opacity:1"
       d="m 552.20657,620.68207 c 8.48288,-4.02134 11.34915,-4.79681 17.54458,-4.74671 l 7.40524,0.0599 -9.07479,4.72012 c -7.99335,4.15763 -10.08412,4.72329 -17.54458,4.74671 l -8.4698,0.0266 z"
       id="path3127"
       transform="scale(0.26458333)" />
    <path
       style="fill:#b3b3b3;fill-opacity:1;stroke:none;stroke-width:7.31699;stroke-dasharray:none;stroke-opacity:1"
       d="m 514.13589,638.77992 c 10.85681,-5.39762 12.75533,-5.95594 19.96453,-5.87124 l 7.9668,0.0936 -12.53613,5.95625 c -10.94899,5.20216 -13.47661,5.94549 -19.96453,5.87123 l -7.4284,-0.085 z"
       id="path3129"
       transform="scale(0.26458333)" />
  </g>
</svg>
