<?xml version="1.0" encoding="UTF-8" standalone="no"?>
<!-- Created with Inkscape (http://www.inkscape.org/) -->

<svg
   width="70.066284mm"
   height="94.895004mm"
   viewBox="0 0 70.066284 94.895004"
   version="1.1"
   id="svg5"
   inkscape:version="1.2.2 (b0a8486541, 2022-12-01)"
   sodipodi:docname="PAPER.svg"
   xmlns:inkscape="http://www.inkscape.org/namespaces/inkscape"
   xmlns:sodipodi="http://sodipodi.sourceforge.net/DTD/sodipodi-0.dtd"
   xmlns="http://www.w3.org/2000/svg"
   xmlns:svg="http://www.w3.org/2000/svg">
  <sodipodi:namedview
     id="namedview7"
     pagecolor="#ffffff"
     bordercolor="#000000"
     borderopacity="0.25"
     inkscape:showpageshadow="2"
     inkscape:pageopacity="0.0"
     inkscape:pagecheckerboard="0"
     inkscape:deskcolor="#d1d1d1"
     inkscape:document-units="mm"
     showgrid="false"
     inkscape:zoom="1.4142136"
     inkscape:cx="-32.880465"
     inkscape:cy="156.2706"
     inkscape:window-width="1536"
     inkscape:window-height="828"
     inkscape:window-x="0"
     inkscape:window-y="0"
     inkscape:window-maximized="1"
     inkscape:current-layer="layer1" />
  <defs
     id="defs2">
    <rect
       x="33.476612"
       y="75.776565"
       width="166.39201"
       height="202.34609"
       id="rect3440" />
  </defs>
  <g
     inkscape:label="Layer 1"
     inkscape:groupmode="layer"
     id="layer1"
     transform="translate(-47.408463,-49.848351)"
     style="display:inline">
    <rect
       style="fill:#ffffff;stroke:#5c5c5c;stroke-width:1;stroke-dasharray:none;stroke-opacity:1"
       id="rect111"
       width="61.544487"
       height="87.036919"
       x="55.43026"
       y="50.348351"
       ry="0" />
    <rect
       style="fill:#ffffff;stroke:#5c5c5c;stroke-width:1;stroke-dasharray:none;stroke-opacity:1"
       id="rect1991"
       width="61.544487"
       height="87.036919"
       x="51.669373"
       y="53.666775"
       ry="0" />
    <rect
       style="fill:#ffffff;stroke:#5c5c5c;stroke-width:1;stroke-dasharray:none;stroke-opacity:1"
       id="rect1993"
       width="61.544487"
       height="87.036919"
       x="47.908463"
       y="57.206432"
       ry="0" />
    <path
       style="fill:#ffffff;stroke:#5c5c5c;stroke-width:1;stroke-dasharray:none;stroke-opacity:1"
       d="m 55.45917,68.510181 c 46.61688,0 46.61688,0 46.61688,0"
       id="path2051" />
    <path
       style="fill:#ffffff;stroke:#5c5c5c;stroke-width:1;stroke-dasharray:none;stroke-opacity:1"
       d="m 55.615604,74.141758 c 46.616876,0 46.616876,0 46.616876,0"
       id="path2053" />
    <path
       style="fill:#ffffff;stroke:#5c5c5c;stroke-width:1;stroke-dasharray:none;stroke-opacity:1"
       d="m 55.192673,120.51095 c 46.616877,0 46.616877,0 46.616877,0"
       id="path2791-62" />
    <path
       style="fill:#ffffff;stroke:#5c5c5c;stroke-width:1;stroke-dasharray:none;stroke-opacity:1"
       d="m 55.56539,125.99187 c 46.61687,0 46.61687,0 46.61687,0"
       id="path2789-9" />
    <path
       style="fill:#ffffff;stroke:#5c5c5c;stroke-width:1;stroke-dasharray:none;stroke-opacity:1"
       d="m 55.721824,131.62345 c 46.616866,0 46.616866,0 46.616866,0"
       id="path2791-1" />
    <g
       aria-label="PA
PER"
       transform="matrix(0.26458333,0,0,0.26458333,48.072157,61.684096)"
       id="text3438"
       style="font-size:93.3333px;line-height:75.5906px;font-family:Manjari;-inkscape-font-specification:Manjari;text-align:center;text-anchor:middle;white-space:pre;shape-inside:url(#rect3440);fill:#5c5c5c;stroke-width:6.04724">
      <path
         d="m 69.596047,129.81179 c 1.868488,0 3.417967,-1.54948 3.417967,-3.41797 v -0.0456 l -0.04557,-19.77864 8.886716,-0.18229 c 14.674473,-0.41016 24.791653,-6.0612 24.791653,-21.14583 0,-12.988276 -9.843743,-19.231763 -22.832019,-19.231763 l -14.355463,0.09114 c -2.096353,0.04557 -3.372395,2.233073 -3.372395,3.417968 l 0.09115,56.82941 v 0.0456 c 0,1.86849 1.549479,3.41797 3.417968,3.41797 z M 99.810879,85.287063 c 0,10.891923 -7.200518,14.036453 -18.092441,14.264318 l -8.749997,0.182291 -0.04557,-26.842438 h 10.572913 c 9.707027,0 16.315098,3.463541 16.315098,12.395829 z"
         id="path4221" />
      <path
         d="m 116.67285,130.17637 c 1.64063,0 2.77995,-0.68359 3.3724,-2.09635 l 9.34244,-21.00911 h 25.33853 l 9.16016,20.91796 c 0.59244,1.41276 1.77734,2.09635 3.55468,2.09635 1.73177,0 3.00781,-1.77734 3.00781,-3.50911 0,-0.45573 -0.0911,-0.91146 -0.27343,-1.32161 l -25.0651,-57.102847 c -0.59245,-1.367187 -1.73177,-2.050781 -3.32682,-2.050781 -1.1849,0 -2.55208,1.139323 -2.96224,2.050781 l -25.01952,57.193987 c -0.22787,0.45573 -0.31901,1.00261 -0.31901,1.73177 0,1.45833 1.6862,3.09896 3.1901,3.09896 z m 25.29296,-52.089825 9.7526,22.148425 h -19.36848 z"
         id="path4223" />
      <path
         d="m 42.662463,205.40239 c 1.868489,0 3.417968,-1.54948 3.417968,-3.41797 v -0.0456 l -0.04557,-19.77864 8.886715,-0.18229 c 14.674474,-0.41015 24.791657,-6.06119 24.791657,-21.14582 0,-12.98828 -9.843746,-19.23177 -22.832022,-19.23177 l -14.355464,0.0911 c -2.096353,0.0456 -3.372394,2.23307 -3.372394,3.41797 l 0.09115,56.8294 v 0.0456 c 0,1.86849 1.549478,3.41797 3.417967,3.41797 z m 30.214832,-44.52472 c 0,10.89192 -7.200518,14.03645 -18.092441,14.26432 l -8.749996,0.18229 -0.04557,-26.84244 h 10.572912 c 9.707028,0 16.315098,3.46354 16.315098,12.39583 z"
         id="path4225" />
      <path
         d="m 89.739268,145.15502 0.136719,56.23696 c 0,1.86849 1.549479,3.41796 3.417967,3.41796 l 42.565086,-0.0456 h 0.0456 c 1.86848,0 3.41796,-1.54948 3.41796,-3.41797 0,-1.86848 -1.54948,-3.41796 -3.41796,-3.41796 h -0.0456 l -39.147118,0.0456 -0.04557,-21.1914 h 0.364583 l 35.045558,0.22787 h 0.0456 c 1.73177,0 3.41797,-1.50391 3.41797,-3.19011 0,-2.23307 -1.45833,-3.64583 -3.41797,-3.64583 l -35.045555,-0.22786 c -0.136719,0 -0.273437,0.0456 -0.455729,0.0456 l -0.04557,-21.41926 39.283837,0.0456 h 0.0456 c 1.86848,0 3.41796,-1.54948 3.41796,-3.41797 0,-1.86849 -1.54948,-3.41797 -3.41796,-3.41797 h -0.0456 l -42.701804,-0.0456 c -1.868489,0 -3.417968,1.54948 -3.417968,3.41797 z"
         id="path4227" />
      <path
         d="m 196.01527,202.57687 c 0,-1.18489 -0.63803,-2.23307 -1.45834,-2.82552 -5.74218,-4.14713 -8.61328,-9.52473 -12.12239,-16.26952 -1.36719,-2.64323 -2.73437,-4.60287 -4.05599,-5.92448 7.15495,-2.27864 13.6263,-8.11198 13.6263,-17.22656 0,-12.98827 -10.70963,-18.86718 -26.11327,-18.86718 h -1.04818 l -12.12239,0.0456 c -1.82291,0.0456 -3.37239,1.5039 -3.37239,3.41796 l 0.13672,56.96613 c 0,1.86849 1.54947,3.46354 3.41796,3.46354 1.82292,0 3.41797,-1.59505 3.41797,-3.41797 v -0.0911 l -0.0456,-23.3789 5.28645,0.0456 c 9.11458,0.0911 12.76042,2.91667 16.63411,11.25651 2.73438,5.92447 6.69922,11.11979 12.03125,14.94791 0.45573,0.31901 1.59505,1.09375 2.82552,1.09375 1.32161,0 2.96224,-1.45833 2.96224,-3.23568 z m -29.89583,-54.27732 c 10.48177,0 19.14062,2.91667 19.14062,11.80338 0,8.61328 -7.88411,11.98567 -19.04947,12.07682 l -9.34245,0.0911 c -0.18229,0 -0.36458,0 -0.59244,0.0456 l -0.0911,-24.01692 z"
         id="path4229" />
    </g>
  </g>
</svg>
